<?xml version="1.0" encoding="UTF-8" standalone="no"?>
<svg
   width="1024"
   height="1024"
   version="1.1"
   id="svg23"
   sodipodi:docname="screen_recorder.svg"
   inkscape:version="1.2.2 (b0a8486541, 2022-12-01)"
   xmlns:inkscape="http://www.inkscape.org/namespaces/inkscape"
   xmlns:sodipodi="http://sodipodi.sourceforge.net/DTD/sodipodi-0.dtd"
   xmlns:xlink="http://www.w3.org/1999/xlink"
   xmlns="http://www.w3.org/2000/svg"
   xmlns:svg="http://www.w3.org/2000/svg">
  <defs
     id="defs27" />
  <sodipodi:namedview
     id="namedview25"
     pagecolor="#ffffff"
     bordercolor="#666666"
     borderopacity="1.0"
     inkscape:showpageshadow="2"
     inkscape:pageopacity="0.0"
     inkscape:pagecheckerboard="0"
     inkscape:deskcolor="#d1d1d1"
     showgrid="false"
     inkscape:zoom="0.31793759"
     inkscape:cx="367.99675"
     inkscape:cy="468.64543"
     inkscape:window-width="1600"
     inkscape:window-height="799"
     inkscape:window-x="0"
     inkscape:window-y="0"
     inkscape:window-maximized="1"
     inkscape:current-layer="svg23" />
  <path
     id="Background"
     d="M 0,357.5 C 0,177.04 0,112.12 56.06,56.06 112.12,0 177.05,0 382.8,0 h 258.39 c 205.76,0 270.68,0 326.74,56.06 56.06,56.06 56.06,120.99 56.06,326.74 v 258.39 c 0,205.76 0,270.68 -56.06,326.74 -56.06,56.059 -120.99,56.059 -326.74,56.059 H 382.8 c -205.76,0 -270.68,0 -326.74,-56.059 C 0,911.87 0,846.94 0,641.19 Z"
     fill="#003e88"
     style="display:inline;stroke:none;stroke-opacity:1;fill:#2b86ff;fill-opacity:1"
     inkscape:label="Background" />
  <mask
     id="Frame_Mask"
     maskUnits="userSpaceOnUse">
    <use
       xlink:href="#Background"
       id="use3" />
  </mask>
  <g
     fill="none"
     mask="url(#Frame_Mask)"
     stroke="#4169e1"
     stroke-width="1024"
     id="g14" />
  <radialGradient
     id="Aurora_Gradient"
     cx="253.16"
     cy="572.03"
     r="346.86"
     gradientTransform="matrix(1.7323 .99965 -1 1.7329 540.61 -618.36)"
     gradientUnits="userSpaceOnUse">
    <stop
       stop-color="#fff"
       offset="0"
       id="stop16" />
    <stop
       stop-color="#fff"
       stop-opacity="0"
       offset="1"
       id="stop18" />
  </radialGradient>
  <circle
     style="fill:#ff2b2b;fill-opacity:1;stroke:#000000;stroke-width:4;stroke-linejoin:round;stroke-opacity:1"
     id="path1035"
     cx="505.85425"
     cy="380.43655"
     r="269.6763" />
  <path
     style="fill:#ff2b2b;fill-opacity:1;stroke:#000000;stroke-width:4;stroke-linejoin:round;stroke-opacity:1"
     id="path1209"
     d="m 320.43754,934.9569 c 10.64592,-18.78607 21.45508,-37.47793 32.97345,-55.7439 12.53857,-18.86167 26.6339,-36.67931 41.76458,-53.51951 10.36818,-10.88474 22.35969,-19.96545 35.11234,-27.85585 3.10635,-1.92197 12.59579,-7.40523 9.43502,-5.57413 -9.77987,5.66565 -19.52836,11.38531 -29.29254,17.07796 17.76631,-10.34372 34.26422,-14.72478 54.45442,-17.40209 25.36399,-3.28041 50.66912,-1.48976 75.69564,3.17159 20.37442,4.19377 38.01813,11.44809 55.20821,23.0312 15.91392,11.20428 28.02378,26.34486 38.70774,42.38798 8.84723,14.90662 17.7107,29.86928 24.91293,45.65321 5.09231,11.5965 8.0549,23.86921 9.32046,36.42985 0.51974,6.25944 0.46915,12.54343 0.25365,18.81435 -0.0567,1.43464 -0.12235,2.8689 -0.18454,4.3033 0,0 41.84446,-21.21752 41.84446,-21.21752 v 0 c -0.006,-1.41541 -0.0152,-2.83082 -0.0378,-4.24608 -0.10514,-6.37735 -0.22182,-12.77149 -1.04545,-19.10512 -1.92939,-12.8612 -5.45459,-25.34453 -10.76789,-37.24888 -7.4835,-15.89885 -16.26623,-31.16716 -25.38437,-46.17908 -10.96888,-16.50315 -23.76446,-31.86664 -39.79105,-43.72927 -6.96902,-4.91352 -9.40717,-6.99147 -16.95612,-10.90854 -12.43541,-6.45259 -26.18622,-9.97547 -39.6714,-13.4243 -25.19445,-4.71835 -50.70136,-7.15556 -76.30935,-4.37633 -7.21569,0.71705 -13.95923,1.18278 -21.06366,2.6505 -12.05423,2.49031 -23.45071,7.62192 -34.32443,13.22886 -31.98686,18.40159 -65.88844,34.58083 -91.39691,61.91597 -14.82135,17.04688 -28.79028,34.89691 -40.93976,53.9635 -11.75274,18.9534 -22.91214,38.27395 -35.06231,56.97938 0,0 42.54468,-19.07705 42.54468,-19.07705 z" />
  <path
     style="fill:#ff2b2b;fill-opacity:1;stroke:#000000;stroke-width:4;stroke-linejoin:round;stroke-opacity:1"
     id="path1211"
     d="m 143.17959,693.95991 c 20.42776,-0.41305 40.84295,-0.75066 61.25937,-1.61348 29.10293,-1.45968 58.23731,-1.90824 87.36974,-2.27888 26.36637,-0.2215 52.73377,-0.13291 79.10059,-0.0752 23.44324,0.0914 46.89083,-0.22626 70.33023,0.26932 17.45454,-0.0349 34.67824,2.73088 51.90686,5.13535 16.54226,2.54469 33.10906,4.81954 49.77231,6.40251 15.06266,1.27742 30.18291,1.67129 45.29355,1.78068 14.70053,0.0712 29.40119,0.01 44.10184,0.0116 17.34579,-0.0878 34.69176,-0.16131 52.03778,-0.15041 16.3947,0.0392 32.78949,0.0958 49.18425,0.0807 15.36279,0.005 30.72563,-0.0118 46.0883,0.0533 13.46701,0.008 26.93375,-0.009 40.40061,0.0771 9.0003,0.10426 18.00134,0.0836 27.00186,0.1439 2.98858,0.0127 5.97696,0.0484 8.96528,0.0879 0,0 37.69567,-27.38751 37.69567,-27.38751 v 0 c -3.069,0.0391 -6.13804,0.0749 -9.20729,0.0879 -9.13256,0.0601 -18.26563,0.0404 -27.39799,0.1439 -13.53756,0.0849 -27.075,0.0694 -40.6127,0.077 -15.4113,0.0644 -30.82276,0.0487 -46.23417,0.0527 -16.47065,-0.0154 -32.94134,0.0412 -49.41192,0.0838 -17.23234,0.016 -34.46463,-0.0508 -51.69689,-0.10285 -14.68485,0.0356 -29.36971,0.0492 -44.05455,0.003 -15.11897,-0.11897 -30.25181,-0.17989 -45.33864,-1.29814 -16.62232,-1.35667 -33.08235,-3.72981 -49.55538,-6.301 -17.5092,-2.28057 -34.97312,-5.42331 -52.70472,-5.20406 -23.53743,-0.38083 -47.0812,-0.0209 -70.62105,-0.16172 -26.5422,0.0641 -53.0845,0.1608 -79.62576,0.39916 -29.0861,0.25599 -58.17252,0.85124 -87.23713,2.02143 -19.70064,0.75478 -39.39978,1.19585 -59.10634,0.26862 0,0 -37.70371,27.39335 -37.70371,27.39335 z" />
  <path
     style="fill:#ff2b2b;fill-opacity:1;stroke:#000000;stroke-width:4;stroke-linejoin:round;stroke-opacity:1"
     id="path1213"
     d="m 475.68475,667.33496 c 0.28202,7.27616 0.19757,14.56351 0.12485,21.84356 -0.0776,6.04991 -0.0518,12.10143 -0.003,18.15158 0.0319,7.25129 0.0476,14.50246 0.0348,21.75381 0.0455,6.92825 -0.0407,13.8562 -0.0545,20.78441 0.009,6.17289 0.0422,12.34461 -0.0534,18.51701 0,0 41.50534,-21.14803 41.50534,-21.14803 v 0 c -0.0969,-6.15424 -0.0618,-12.30784 -0.0534,-18.46259 -0.0138,-6.90969 -0.10015,-13.81913 -0.0545,-20.72886 -0.0128,-7.26316 0.003,-14.52615 0.0348,-21.78925 0.0483,-6.04909 0.0749,-12.09956 -0.003,-18.14839 -0.0739,-7.32254 -0.15378,-14.65199 0.12486,-21.97079 0,0 -41.60252,21.19754 -41.60252,21.19754 z" />
</svg>
